<svg width="232" height="37" viewBox="0 0 232 37" fill="none" xmlns="http://www.w3.org/2000/svg">
<path d="M18.0186 31H14.8447V26.7031H3.6875V31H0.513672V22.2476C0.513672 20.9699 0.733398 19.7939 1.17285 18.7197C1.6123 17.6455 2.22266 16.7218 3.00391 15.9487C3.78516 15.1756 4.70882 14.5734 5.7749 14.1421C6.84098 13.7108 8.00472 13.4951 9.26611 13.4951H16.4194C16.6392 13.4951 16.8467 13.5358 17.042 13.6172C17.2373 13.6986 17.4082 13.8125 17.5547 13.959C17.7012 14.1055 17.8151 14.2764 17.8965 14.4717C17.9779 14.667 18.0186 14.8745 18.0186 15.0942V31ZM3.6875 23.5293H14.8447V16.6689H9.26611C9.16846 16.6689 8.96094 16.6852 8.64355 16.7178C8.33431 16.7422 7.97217 16.8114 7.55713 16.9253C7.15023 17.0392 6.71891 17.2142 6.26318 17.4502C5.80745 17.6862 5.38835 18.0117 5.00586 18.4268C4.62337 18.8418 4.30599 19.3626 4.05371 19.9893C3.80957 20.6077 3.6875 21.3605 3.6875 22.2476V23.5293ZM35.8408 26.5444C35.8408 27.0897 35.7716 27.582 35.6333 28.0215C35.495 28.4528 35.3118 28.8353 35.084 29.1689C34.8561 29.4945 34.5916 29.7752 34.2905 30.0112C33.9894 30.2391 33.672 30.4263 33.3384 30.5728C33.0129 30.7192 32.6833 30.8291 32.3496 30.9023C32.016 30.9674 31.6986 31 31.3975 31H25.6724V27.8262H31.3975C31.8206 27.8262 32.138 27.7163 32.3496 27.4966C32.5612 27.2769 32.667 26.9595 32.667 26.5444V22.272C32.667 21.8325 32.5571 21.507 32.3374 21.2954C32.1258 21.0838 31.8125 20.978 31.3975 20.978H25.6968C25.2655 20.978 24.9399 21.0879 24.7202 21.3076C24.5005 21.5192 24.3906 21.8325 24.3906 22.2476V35.126H21.2168V22.2476C21.2168 21.7023 21.286 21.214 21.4243 20.7827C21.5627 20.3514 21.7458 19.973 21.9736 19.6475C22.2096 19.3138 22.4782 19.033 22.7793 18.8052C23.0804 18.5692 23.3937 18.3779 23.7192 18.2314C24.0529 18.085 24.3866 17.9792 24.7202 17.9141C25.062 17.8408 25.3794 17.8042 25.6724 17.8042H31.3975C31.9427 17.8042 32.431 17.8734 32.8623 18.0117C33.2936 18.1501 33.672 18.3332 33.9976 18.561C34.3312 18.7889 34.612 19.0534 34.8398 19.3545C35.0758 19.6556 35.2671 19.973 35.4136 20.3066C35.5601 20.6322 35.6659 20.9618 35.731 21.2954C35.8042 21.6291 35.8408 21.9465 35.8408 22.2476V26.5444ZM53.1016 26.5444C53.1016 27.0897 53.0324 27.582 52.894 28.0215C52.7557 28.4528 52.5726 28.8353 52.3447 29.1689C52.1169 29.4945 51.8524 29.7752 51.5513 30.0112C51.2502 30.2391 50.9328 30.4263 50.5991 30.5728C50.2736 30.7192 49.944 30.8291 49.6104 30.9023C49.2767 30.9674 48.9593 31 48.6582 31H42.9331V27.8262H48.6582C49.0814 27.8262 49.3988 27.7163 49.6104 27.4966C49.8219 27.2769 49.9277 26.9595 49.9277 26.5444V22.272C49.9277 21.8325 49.8179 21.507 49.5981 21.2954C49.3866 21.0838 49.0732 20.978 48.6582 20.978H42.9575C42.5262 20.978 42.2007 21.0879 41.981 21.3076C41.7612 21.5192 41.6514 21.8325 41.6514 22.2476V35.126H38.4775V22.2476C38.4775 21.7023 38.5467 21.214 38.6851 20.7827C38.8234 20.3514 39.0065 19.973 39.2344 19.6475C39.4704 19.3138 39.7389 19.033 40.04 18.8052C40.3411 18.5692 40.6545 18.3779 40.98 18.2314C41.3136 18.085 41.6473 17.9792 41.981 17.9141C42.3228 17.8408 42.6401 17.8042 42.9331 17.8042H48.6582C49.2035 17.8042 49.6917 17.8734 50.123 18.0117C50.5544 18.1501 50.9328 18.3332 51.2583 18.561C51.592 18.7889 51.8727 19.0534 52.1006 19.3545C52.3366 19.6556 52.5278 19.973 52.6743 20.3066C52.8208 20.6322 52.9266 20.9618 52.9917 21.2954C53.0649 21.6291 53.1016 21.9465 53.1016 22.2476V26.5444ZM61.6099 31H60.1938C59.7381 31 59.2498 30.9227 58.729 30.7681C58.2163 30.6134 57.7362 30.3612 57.2886 30.0112C56.841 29.6532 56.4707 29.1934 56.1777 28.6318C55.8848 28.0622 55.7383 27.3664 55.7383 26.5444V12.2256H58.9121V26.5444C58.9121 26.9351 59.0342 27.2484 59.2783 27.4844C59.5225 27.7122 59.8276 27.8262 60.1938 27.8262H61.6099V31ZM78.1992 32.2695C78.1992 32.8148 78.13 33.3031 77.9917 33.7344C77.8534 34.1738 77.6702 34.5563 77.4424 34.8818C77.2145 35.2155 76.95 35.4963 76.6489 35.7241C76.3478 35.9601 76.0304 36.1514 75.6968 36.2979C75.3713 36.4443 75.0417 36.5501 74.708 36.6152C74.3743 36.6885 74.057 36.7251 73.7559 36.7251H68.0308V33.5513H73.7559C74.179 33.5513 74.4964 33.4414 74.708 33.2217C74.9196 33.002 75.0254 32.6846 75.0254 32.2695V17.8042H78.1992V32.2695ZM73.7559 31H68.0308C67.575 31 67.0868 30.9227 66.5659 30.7681C66.0532 30.6134 65.5731 30.3612 65.1255 30.0112C64.6779 29.6532 64.3076 29.1934 64.0146 28.6318C63.7217 28.0622 63.5752 27.3664 63.5752 26.5444V17.8042H66.749V26.5444C66.749 26.9595 66.8589 27.2769 67.0786 27.4966C67.2983 27.7163 67.6239 27.8262 68.0552 27.8262H73.7559V31ZM98.7314 29.4009C98.7314 29.6287 98.6908 29.8403 98.6094 30.0356C98.528 30.231 98.4141 30.4019 98.2676 30.5483C98.1211 30.6867 97.9502 30.7965 97.7549 30.8779C97.5596 30.9593 97.3521 31 97.1323 31H89.979C89.3035 31 88.62 30.9268 87.9282 30.7803C87.2365 30.6338 86.5651 30.41 85.9141 30.1089C85.2712 29.7996 84.6649 29.409 84.0952 28.937C83.5256 28.465 83.0251 27.9076 82.5938 27.2646C82.1706 26.6136 81.8369 25.873 81.5928 25.043C81.3486 24.2048 81.2266 23.2729 81.2266 22.2476V13.4951H84.4004V22.2476C84.4004 23.1427 84.5225 23.8996 84.7666 24.5181C85.0189 25.1366 85.3363 25.6533 85.7188 26.0684C86.1012 26.4834 86.5203 26.8089 86.9761 27.0449C87.4318 27.2809 87.8631 27.4559 88.27 27.5698C88.6851 27.6838 89.0472 27.757 89.3564 27.7896C89.6738 27.814 89.8813 27.8262 89.979 27.8262H95.5576V13.4951H98.7314V29.4009ZM116.7 31H113.526V23.6758C113.526 23.2607 113.453 22.8905 113.307 22.5649C113.168 22.2313 112.977 21.9465 112.733 21.7104C112.489 21.4744 112.2 21.2954 111.866 21.1733C111.541 21.0431 111.187 20.978 110.804 20.978H105.25V31H102.076V19.3789C102.076 19.1592 102.117 18.9557 102.198 18.7686C102.28 18.5732 102.394 18.4064 102.54 18.2681C102.687 18.1216 102.857 18.0076 103.053 17.9263C103.248 17.8449 103.456 17.8042 103.675 17.8042H110.829C111.227 17.8042 111.646 17.849 112.086 17.9385C112.534 18.028 112.973 18.1745 113.404 18.3779C113.844 18.5732 114.259 18.8255 114.649 19.1348C115.048 19.4359 115.398 19.8062 115.699 20.2456C116.008 20.6769 116.253 21.1774 116.432 21.7471C116.611 22.3167 116.7 22.9596 116.7 23.6758V31ZM122.706 15.0942H119.532V12.2256H122.706V15.0942ZM122.706 31H119.532V17.8042H122.706V31ZM150.772 23.8711C150.772 24.8867 150.597 25.8307 150.245 26.7031C149.894 27.5755 149.399 28.3307 148.761 28.9688C148.136 29.6068 147.387 30.1081 146.515 30.4727C145.642 30.8242 144.692 31 143.663 31H125.05V25.9219H143.663C144.288 25.9219 144.776 25.7461 145.128 25.3945C145.479 25.0299 145.655 24.5221 145.655 23.8711V2.99219H150.772V23.8711ZM178.878 23.8711C178.878 24.7435 178.767 25.5312 178.546 26.2344C178.325 26.9245 178.032 27.5365 177.667 28.0703C177.302 28.5911 176.879 29.0404 176.397 29.418C175.916 29.7826 175.408 30.082 174.874 30.3164C174.353 30.5508 173.819 30.7266 173.272 30.8438C172.739 30.9479 172.231 31 171.749 31H162.589C161.886 31 161.118 30.8763 160.284 30.6289C159.451 30.3815 158.676 29.9779 157.96 29.418C157.257 28.8451 156.664 28.1094 156.183 27.2109C155.714 26.2995 155.479 25.1862 155.479 23.8711V16.9961C155.479 15.694 155.714 14.5938 156.183 13.6953C156.664 12.7839 157.257 12.0482 157.96 11.4883C158.676 10.9154 159.451 10.5052 160.284 10.2578C161.118 10.0104 161.886 9.88672 162.589 9.88672H171.749C173.051 9.88672 174.158 10.1211 175.069 10.5898C175.981 11.0586 176.716 11.651 177.276 12.3672C177.836 13.0703 178.24 13.8385 178.487 14.6719C178.748 15.5052 178.878 16.2799 178.878 16.9961V23.8711ZM173.8 17.0352C173.8 16.332 173.624 15.8112 173.272 15.4727C172.921 15.1341 172.413 14.9648 171.749 14.9648H162.628C161.951 14.9648 161.437 15.1406 161.085 15.4922C160.733 15.8307 160.558 16.332 160.558 16.9961V23.8711C160.558 24.5352 160.733 25.043 161.085 25.3945C161.437 25.7461 161.951 25.9219 162.628 25.9219H171.749C172.439 25.9219 172.953 25.7461 173.292 25.3945C173.631 25.043 173.8 24.5352 173.8 23.8711V17.0352ZM206.495 23.8711C206.495 24.3529 206.437 24.8607 206.319 25.3945C206.215 25.9284 206.046 26.4622 205.812 26.9961C205.577 27.5169 205.271 28.0182 204.894 28.5C204.529 28.9818 204.08 29.4115 203.546 29.7891C203.025 30.1536 202.42 30.4466 201.729 30.668C201.039 30.8893 200.258 31 199.386 31H190.226C189.744 31 189.236 30.9479 188.702 30.8438C188.168 30.7266 187.634 30.5508 187.101 30.3164C186.58 30.082 186.078 29.7826 185.597 29.418C185.115 29.0404 184.685 28.5911 184.308 28.0703C183.943 27.5365 183.65 26.9245 183.429 26.2344C183.207 25.5312 183.097 24.7435 183.097 23.8711V0.960938H188.175V23.8711C188.175 24.4961 188.37 24.9974 188.761 25.375C189.151 25.7396 189.64 25.9219 190.226 25.9219H199.386C200.024 25.9219 200.519 25.7331 200.87 25.3555C201.235 24.9779 201.417 24.4831 201.417 23.8711V16.9961C201.417 16.3581 201.228 15.8633 200.851 15.5117C200.473 15.1471 199.985 14.9648 199.386 14.9648H190.226V9.88672H199.386C199.868 9.88672 200.375 9.94531 200.909 10.0625C201.443 10.1667 201.97 10.3359 202.491 10.5703C203.025 10.8047 203.533 11.1107 204.015 11.4883C204.496 11.8529 204.92 12.3021 205.284 12.8359C205.649 13.3568 205.942 13.9622 206.163 14.6523C206.384 15.3424 206.495 16.1237 206.495 16.9961V23.8711ZM231.241 23.8711C231.241 24.7435 231.131 25.5312 230.909 26.2344C230.688 26.9245 230.395 27.5365 230.03 28.0703C229.666 28.5911 229.243 29.0404 228.761 29.418C228.279 29.7826 227.771 30.082 227.237 30.3164C226.716 30.5508 226.183 30.7266 225.636 30.8438C225.102 30.9479 224.594 31 224.112 31H210.362V25.9219H224.073C224.763 25.9219 225.284 25.7461 225.636 25.3945C225.987 25.043 226.163 24.5352 226.163 23.8711C226.098 22.5169 225.414 21.8398 224.112 21.8398H216.241C215.121 21.8398 214.171 21.6445 213.39 21.2539C212.608 20.8633 211.97 20.375 211.476 19.7891C210.994 19.2031 210.642 18.5716 210.421 17.8945C210.213 17.2174 210.108 16.5859 210.108 16C210.108 14.8672 210.31 13.9167 210.714 13.1484C211.118 12.3672 211.625 11.7357 212.237 11.2539C212.849 10.7721 213.513 10.4271 214.229 10.2188C214.946 9.9974 215.616 9.88672 216.241 9.88672H228.722V14.9648H216.28C216.02 14.9648 215.812 14.9974 215.655 15.0625C215.512 15.1146 215.401 15.1927 215.323 15.2969C215.258 15.388 215.219 15.4922 215.206 15.6094C215.193 15.7135 215.187 15.8177 215.187 15.9219C215.2 16.1302 215.239 16.293 215.304 16.4102C215.369 16.5273 215.447 16.612 215.538 16.6641C215.642 16.7161 215.753 16.7487 215.87 16.7617C216 16.7617 216.124 16.7617 216.241 16.7617H224.112C225.414 16.7617 226.521 16.9961 227.433 17.4648C228.344 17.9336 229.08 18.526 229.64 19.2422C230.2 19.9453 230.603 20.7135 230.851 21.5469C231.111 22.3802 231.241 23.1549 231.241 23.8711Z" fill="white"/>
</svg>
