<svg width="258" height="34" viewBox="0 0 258 34" fill="none" xmlns="http://www.w3.org/2000/svg">
<path d="M18.0186 28H14.8447V23.7031H3.6875V28H0.513672V19.2476C0.513672 17.9699 0.733398 16.7939 1.17285 15.7197C1.6123 14.6455 2.22266 13.7218 3.00391 12.9487C3.78516 12.1756 4.70882 11.5734 5.7749 11.1421C6.84098 10.7108 8.00472 10.4951 9.26611 10.4951H16.4194C16.6392 10.4951 16.8467 10.5358 17.042 10.6172C17.2373 10.6986 17.4082 10.8125 17.5547 10.959C17.7012 11.1055 17.8151 11.2764 17.8965 11.4717C17.9779 11.667 18.0186 11.8745 18.0186 12.0942V28ZM3.6875 20.5293H14.8447V13.6689H9.26611C9.16846 13.6689 8.96094 13.6852 8.64355 13.7178C8.33431 13.7422 7.97217 13.8114 7.55713 13.9253C7.15023 14.0392 6.71891 14.2142 6.26318 14.4502C5.80745 14.6862 5.38835 15.0117 5.00586 15.4268C4.62337 15.8418 4.30599 16.3626 4.05371 16.9893C3.80957 17.6077 3.6875 18.3605 3.6875 19.2476V20.5293ZM35.8408 23.5444C35.8408 24.0897 35.7716 24.582 35.6333 25.0215C35.495 25.4528 35.3118 25.8353 35.084 26.1689C34.8561 26.4945 34.5916 26.7752 34.2905 27.0112C33.9894 27.2391 33.672 27.4263 33.3384 27.5728C33.0129 27.7192 32.6833 27.8291 32.3496 27.9023C32.016 27.9674 31.6986 28 31.3975 28H25.6724V24.8262H31.3975C31.8206 24.8262 32.138 24.7163 32.3496 24.4966C32.5612 24.2769 32.667 23.9595 32.667 23.5444V19.272C32.667 18.8325 32.5571 18.507 32.3374 18.2954C32.1258 18.0838 31.8125 17.978 31.3975 17.978H25.6968C25.2655 17.978 24.9399 18.0879 24.7202 18.3076C24.5005 18.5192 24.3906 18.8325 24.3906 19.2476V32.126H21.2168V19.2476C21.2168 18.7023 21.286 18.214 21.4243 17.7827C21.5627 17.3514 21.7458 16.973 21.9736 16.6475C22.2096 16.3138 22.4782 16.033 22.7793 15.8052C23.0804 15.5692 23.3937 15.3779 23.7192 15.2314C24.0529 15.085 24.3866 14.9792 24.7202 14.9141C25.062 14.8408 25.3794 14.8042 25.6724 14.8042H31.3975C31.9427 14.8042 32.431 14.8734 32.8623 15.0117C33.2936 15.1501 33.672 15.3332 33.9976 15.561C34.3312 15.7889 34.612 16.0534 34.8398 16.3545C35.0758 16.6556 35.2671 16.973 35.4136 17.3066C35.5601 17.6322 35.6659 17.9618 35.731 18.2954C35.8042 18.6291 35.8408 18.9465 35.8408 19.2476V23.5444ZM53.1016 23.5444C53.1016 24.0897 53.0324 24.582 52.894 25.0215C52.7557 25.4528 52.5726 25.8353 52.3447 26.1689C52.1169 26.4945 51.8524 26.7752 51.5513 27.0112C51.2502 27.2391 50.9328 27.4263 50.5991 27.5728C50.2736 27.7192 49.944 27.8291 49.6104 27.9023C49.2767 27.9674 48.9593 28 48.6582 28H42.9331V24.8262H48.6582C49.0814 24.8262 49.3988 24.7163 49.6104 24.4966C49.8219 24.2769 49.9277 23.9595 49.9277 23.5444V19.272C49.9277 18.8325 49.8179 18.507 49.5981 18.2954C49.3866 18.0838 49.0732 17.978 48.6582 17.978H42.9575C42.5262 17.978 42.2007 18.0879 41.981 18.3076C41.7612 18.5192 41.6514 18.8325 41.6514 19.2476V32.126H38.4775V19.2476C38.4775 18.7023 38.5467 18.214 38.6851 17.7827C38.8234 17.3514 39.0065 16.973 39.2344 16.6475C39.4704 16.3138 39.7389 16.033 40.04 15.8052C40.3411 15.5692 40.6545 15.3779 40.98 15.2314C41.3136 15.085 41.6473 14.9792 41.981 14.9141C42.3228 14.8408 42.6401 14.8042 42.9331 14.8042H48.6582C49.2035 14.8042 49.6917 14.8734 50.123 15.0117C50.5544 15.1501 50.9328 15.3332 51.2583 15.561C51.592 15.7889 51.8727 16.0534 52.1006 16.3545C52.3366 16.6556 52.5278 16.973 52.6743 17.3066C52.8208 17.6322 52.9266 17.9618 52.9917 18.2954C53.0649 18.6291 53.1016 18.9465 53.1016 19.2476V23.5444ZM61.6099 28H60.1938C59.7381 28 59.2498 27.9227 58.729 27.7681C58.2163 27.6134 57.7362 27.3612 57.2886 27.0112C56.841 26.6532 56.4707 26.1934 56.1777 25.6318C55.8848 25.0622 55.7383 24.3664 55.7383 23.5444V9.22559H58.9121V23.5444C58.9121 23.9351 59.0342 24.2484 59.2783 24.4844C59.5225 24.7122 59.8276 24.8262 60.1938 24.8262H61.6099V28ZM78.1992 29.2695C78.1992 29.8148 78.13 30.3031 77.9917 30.7344C77.8534 31.1738 77.6702 31.5563 77.4424 31.8818C77.2145 32.2155 76.95 32.4963 76.6489 32.7241C76.3478 32.9601 76.0304 33.1514 75.6968 33.2979C75.3713 33.4443 75.0417 33.5501 74.708 33.6152C74.3743 33.6885 74.057 33.7251 73.7559 33.7251H68.0308V30.5513H73.7559C74.179 30.5513 74.4964 30.4414 74.708 30.2217C74.9196 30.002 75.0254 29.6846 75.0254 29.2695V14.8042H78.1992V29.2695ZM73.7559 28H68.0308C67.575 28 67.0868 27.9227 66.5659 27.7681C66.0532 27.6134 65.5731 27.3612 65.1255 27.0112C64.6779 26.6532 64.3076 26.1934 64.0146 25.6318C63.7217 25.0622 63.5752 24.3664 63.5752 23.5444V14.8042H66.749V23.5444C66.749 23.9595 66.8589 24.2769 67.0786 24.4966C67.2983 24.7163 67.6239 24.8262 68.0552 24.8262H73.7559V28ZM98.7314 26.4009C98.7314 26.6287 98.6908 26.8403 98.6094 27.0356C98.528 27.231 98.4141 27.4019 98.2676 27.5483C98.1211 27.6867 97.9502 27.7965 97.7549 27.8779C97.5596 27.9593 97.3521 28 97.1323 28H89.979C89.3035 28 88.62 27.9268 87.9282 27.7803C87.2365 27.6338 86.5651 27.41 85.9141 27.1089C85.2712 26.7996 84.6649 26.409 84.0952 25.937C83.5256 25.465 83.0251 24.9076 82.5938 24.2646C82.1706 23.6136 81.8369 22.873 81.5928 22.043C81.3486 21.2048 81.2266 20.2729 81.2266 19.2476V10.4951H84.4004V19.2476C84.4004 20.1427 84.5225 20.8996 84.7666 21.5181C85.0189 22.1366 85.3363 22.6533 85.7188 23.0684C86.1012 23.4834 86.5203 23.8089 86.9761 24.0449C87.4318 24.2809 87.8631 24.4559 88.27 24.5698C88.6851 24.6838 89.0472 24.757 89.3564 24.7896C89.6738 24.814 89.8813 24.8262 89.979 24.8262H95.5576V10.4951H98.7314V26.4009ZM116.7 28H113.526V20.6758C113.526 20.2607 113.453 19.8905 113.307 19.5649C113.168 19.2313 112.977 18.9465 112.733 18.7104C112.489 18.4744 112.2 18.2954 111.866 18.1733C111.541 18.0431 111.187 17.978 110.804 17.978H105.25V28H102.076V16.3789C102.076 16.1592 102.117 15.9557 102.198 15.7686C102.28 15.5732 102.394 15.4064 102.54 15.2681C102.687 15.1216 102.857 15.0076 103.053 14.9263C103.248 14.8449 103.456 14.8042 103.675 14.8042H110.829C111.227 14.8042 111.646 14.849 112.086 14.9385C112.534 15.028 112.973 15.1745 113.404 15.3779C113.844 15.5732 114.259 15.8255 114.649 16.1348C115.048 16.4359 115.398 16.8062 115.699 17.2456C116.008 17.6769 116.253 18.1774 116.432 18.7471C116.611 19.3167 116.7 19.9596 116.7 20.6758V28ZM122.706 12.0942H119.532V9.22559H122.706V12.0942ZM122.706 28H119.532V14.8042H122.706V28ZM152.94 28H129.776C129.412 28 129.073 27.9349 128.761 27.8047C128.448 27.6745 128.175 27.4987 127.94 27.2773C127.719 27.043 127.543 26.7695 127.413 26.457C127.283 26.1445 127.218 25.806 127.218 25.4414V-0.0078125H132.296V22.9219H152.94V28ZM179.073 20.8711C179.073 21.7435 178.963 22.5312 178.741 23.2344C178.52 23.9245 178.227 24.5365 177.862 25.0703C177.498 25.5911 177.075 26.0404 176.593 26.418C176.111 26.7826 175.603 27.082 175.069 27.3164C174.549 27.5508 174.015 27.7266 173.468 27.8438C172.934 27.9479 172.426 28 171.944 28H162.784C162.081 28 161.313 27.8763 160.479 27.6289C159.646 27.3815 158.871 26.9779 158.155 26.418C157.452 25.8451 156.86 25.1094 156.378 24.2109C155.909 23.2995 155.675 22.1862 155.675 20.8711V13.9961C155.675 12.694 155.909 11.5938 156.378 10.6953C156.86 9.78385 157.452 9.04818 158.155 8.48828C158.871 7.91536 159.646 7.50521 160.479 7.25781C161.313 7.01042 162.081 6.88672 162.784 6.88672H171.944C173.246 6.88672 174.353 7.12109 175.265 7.58984C176.176 8.05859 176.912 8.65104 177.472 9.36719C178.032 10.0703 178.435 10.8385 178.683 11.6719C178.943 12.5052 179.073 13.2799 179.073 13.9961V20.8711ZM173.995 14.0352C173.995 13.332 173.819 12.8112 173.468 12.4727C173.116 12.1341 172.608 11.9648 171.944 11.9648H162.823C162.146 11.9648 161.632 12.1406 161.28 12.4922C160.929 12.8307 160.753 13.332 160.753 13.9961V20.8711C160.753 21.5352 160.929 22.043 161.28 22.3945C161.632 22.7461 162.146 22.9219 162.823 22.9219H171.944C172.634 22.9219 173.149 22.7461 173.487 22.3945C173.826 22.043 173.995 21.5352 173.995 20.8711V14.0352ZM205.206 21.0078C205.206 21.7109 205.082 22.4727 204.835 23.293C204.588 24.1003 204.184 24.8555 203.624 25.5586C203.077 26.2487 202.354 26.8281 201.456 27.2969C200.571 27.7656 199.49 28 198.214 28H189.054C188.351 28 187.589 27.8763 186.769 27.6289C185.961 27.3815 185.206 26.9844 184.503 26.4375C183.813 25.8776 183.233 25.1549 182.765 24.2695C182.296 23.3711 182.062 22.2839 182.062 21.0078C182.062 20.3047 182.185 19.543 182.433 18.7227C182.68 17.9023 183.077 17.1471 183.624 16.457C184.184 15.7539 184.907 15.168 185.792 14.6992C186.69 14.2305 187.778 13.9961 189.054 13.9961H198.214V18.8398H189.054C188.364 18.8398 187.83 19.0547 187.452 19.4844C187.075 19.901 186.886 20.4219 186.886 21.0469C186.886 21.7109 187.101 22.2318 187.53 22.6094C187.973 22.974 188.494 23.1562 189.093 23.1562H198.214C198.904 23.1562 199.438 22.9479 199.815 22.5312C200.193 22.1146 200.382 21.5938 200.382 20.9688V13.8789C200.382 13.2148 200.174 12.6875 199.757 12.2969C199.353 11.9062 198.839 11.7109 198.214 11.7109H187.062V6.88672H198.214C198.917 6.88672 199.672 7.01042 200.479 7.25781C201.3 7.50521 202.055 7.90885 202.745 8.46875C203.448 9.01562 204.034 9.73828 204.503 10.6367C204.972 11.5221 205.206 12.6029 205.206 13.8789V21.0078ZM232.94 28H227.862V16.2812C227.862 15.6172 227.745 15.0247 227.511 14.5039C227.289 13.9701 226.983 13.5143 226.593 13.1367C226.202 12.7591 225.74 12.4727 225.206 12.2773C224.685 12.069 224.119 11.9648 223.507 11.9648H214.62V28H209.542V9.40625C209.542 9.05469 209.607 8.72917 209.737 8.42969C209.868 8.11719 210.05 7.85026 210.284 7.62891C210.519 7.39453 210.792 7.21224 211.104 7.08203C211.417 6.95182 211.749 6.88672 212.101 6.88672H223.546C224.184 6.88672 224.854 6.95833 225.558 7.10156C226.274 7.24479 226.977 7.47917 227.667 7.80469C228.37 8.11719 229.034 8.52083 229.659 9.01562C230.297 9.4974 230.857 10.0898 231.339 10.793C231.834 11.4831 232.224 12.2839 232.511 13.1953C232.797 14.1068 232.94 15.1354 232.94 16.2812V28ZM257.804 20.8711C257.804 21.7435 257.693 22.5312 257.472 23.2344C257.25 23.9245 256.957 24.5365 256.593 25.0703C256.228 25.5911 255.805 26.0404 255.323 26.418C254.841 26.7826 254.334 27.082 253.8 27.3164C253.279 27.5508 252.745 27.7266 252.198 27.8438C251.664 27.9479 251.157 28 250.675 28H236.925V22.9219H250.636C251.326 22.9219 251.847 22.7461 252.198 22.3945C252.55 22.043 252.726 21.5352 252.726 20.8711C252.66 19.5169 251.977 18.8398 250.675 18.8398H242.804C241.684 18.8398 240.733 18.6445 239.952 18.2539C239.171 17.8633 238.533 17.375 238.038 16.7891C237.556 16.2031 237.205 15.5716 236.983 14.8945C236.775 14.2174 236.671 13.5859 236.671 13C236.671 11.8672 236.873 10.9167 237.276 10.1484C237.68 9.36719 238.188 8.73568 238.8 8.25391C239.412 7.77214 240.076 7.42708 240.792 7.21875C241.508 6.9974 242.179 6.88672 242.804 6.88672H255.284V11.9648H242.843C242.582 11.9648 242.374 11.9974 242.218 12.0625C242.075 12.1146 241.964 12.1927 241.886 12.2969C241.821 12.388 241.782 12.4922 241.769 12.6094C241.756 12.7135 241.749 12.8177 241.749 12.9219C241.762 13.1302 241.801 13.293 241.866 13.4102C241.931 13.5273 242.009 13.612 242.101 13.6641C242.205 13.7161 242.315 13.7487 242.433 13.7617C242.563 13.7617 242.687 13.7617 242.804 13.7617H250.675C251.977 13.7617 253.084 13.9961 253.995 14.4648C254.907 14.9336 255.642 15.526 256.202 16.2422C256.762 16.9453 257.166 17.7135 257.413 18.5469C257.674 19.3802 257.804 20.1549 257.804 20.8711Z" fill="white"/>
</svg>
