<svg width="223" height="35" viewBox="0 0 223 35" fill="none" xmlns="http://www.w3.org/2000/svg">
<path d="M18.0186 29H14.8447V24.7031H3.6875V29H0.513672V20.2476C0.513672 18.9699 0.733398 17.7939 1.17285 16.7197C1.6123 15.6455 2.22266 14.7218 3.00391 13.9487C3.78516 13.1756 4.70882 12.5734 5.7749 12.1421C6.84098 11.7108 8.00472 11.4951 9.26611 11.4951H16.4194C16.6392 11.4951 16.8467 11.5358 17.042 11.6172C17.2373 11.6986 17.4082 11.8125 17.5547 11.959C17.7012 12.1055 17.8151 12.2764 17.8965 12.4717C17.9779 12.667 18.0186 12.8745 18.0186 13.0942V29ZM3.6875 21.5293H14.8447V14.6689H9.26611C9.16846 14.6689 8.96094 14.6852 8.64355 14.7178C8.33431 14.7422 7.97217 14.8114 7.55713 14.9253C7.15023 15.0392 6.71891 15.2142 6.26318 15.4502C5.80745 15.6862 5.38835 16.0117 5.00586 16.4268C4.62337 16.8418 4.30599 17.3626 4.05371 17.9893C3.80957 18.6077 3.6875 19.3605 3.6875 20.2476V21.5293ZM35.8408 24.5444C35.8408 25.0897 35.7716 25.582 35.6333 26.0215C35.495 26.4528 35.3118 26.8353 35.084 27.1689C34.8561 27.4945 34.5916 27.7752 34.2905 28.0112C33.9894 28.2391 33.672 28.4263 33.3384 28.5728C33.0129 28.7192 32.6833 28.8291 32.3496 28.9023C32.016 28.9674 31.6986 29 31.3975 29H25.6724V25.8262H31.3975C31.8206 25.8262 32.138 25.7163 32.3496 25.4966C32.5612 25.2769 32.667 24.9595 32.667 24.5444V20.272C32.667 19.8325 32.5571 19.507 32.3374 19.2954C32.1258 19.0838 31.8125 18.978 31.3975 18.978H25.6968C25.2655 18.978 24.9399 19.0879 24.7202 19.3076C24.5005 19.5192 24.3906 19.8325 24.3906 20.2476V33.126H21.2168V20.2476C21.2168 19.7023 21.286 19.214 21.4243 18.7827C21.5627 18.3514 21.7458 17.973 21.9736 17.6475C22.2096 17.3138 22.4782 17.033 22.7793 16.8052C23.0804 16.5692 23.3937 16.3779 23.7192 16.2314C24.0529 16.085 24.3866 15.9792 24.7202 15.9141C25.062 15.8408 25.3794 15.8042 25.6724 15.8042H31.3975C31.9427 15.8042 32.431 15.8734 32.8623 16.0117C33.2936 16.1501 33.672 16.3332 33.9976 16.561C34.3312 16.7889 34.612 17.0534 34.8398 17.3545C35.0758 17.6556 35.2671 17.973 35.4136 18.3066C35.5601 18.6322 35.6659 18.9618 35.731 19.2954C35.8042 19.6291 35.8408 19.9465 35.8408 20.2476V24.5444ZM53.1016 24.5444C53.1016 25.0897 53.0324 25.582 52.894 26.0215C52.7557 26.4528 52.5726 26.8353 52.3447 27.1689C52.1169 27.4945 51.8524 27.7752 51.5513 28.0112C51.2502 28.2391 50.9328 28.4263 50.5991 28.5728C50.2736 28.7192 49.944 28.8291 49.6104 28.9023C49.2767 28.9674 48.9593 29 48.6582 29H42.9331V25.8262H48.6582C49.0814 25.8262 49.3988 25.7163 49.6104 25.4966C49.8219 25.2769 49.9277 24.9595 49.9277 24.5444V20.272C49.9277 19.8325 49.8179 19.507 49.5981 19.2954C49.3866 19.0838 49.0732 18.978 48.6582 18.978H42.9575C42.5262 18.978 42.2007 19.0879 41.981 19.3076C41.7612 19.5192 41.6514 19.8325 41.6514 20.2476V33.126H38.4775V20.2476C38.4775 19.7023 38.5467 19.214 38.6851 18.7827C38.8234 18.3514 39.0065 17.973 39.2344 17.6475C39.4704 17.3138 39.7389 17.033 40.04 16.8052C40.3411 16.5692 40.6545 16.3779 40.98 16.2314C41.3136 16.085 41.6473 15.9792 41.981 15.9141C42.3228 15.8408 42.6401 15.8042 42.9331 15.8042H48.6582C49.2035 15.8042 49.6917 15.8734 50.123 16.0117C50.5544 16.1501 50.9328 16.3332 51.2583 16.561C51.592 16.7889 51.8727 17.0534 52.1006 17.3545C52.3366 17.6556 52.5278 17.973 52.6743 18.3066C52.8208 18.6322 52.9266 18.9618 52.9917 19.2954C53.0649 19.6291 53.1016 19.9465 53.1016 20.2476V24.5444ZM61.6099 29H60.1938C59.7381 29 59.2498 28.9227 58.729 28.7681C58.2163 28.6134 57.7362 28.3612 57.2886 28.0112C56.841 27.6532 56.4707 27.1934 56.1777 26.6318C55.8848 26.0622 55.7383 25.3664 55.7383 24.5444V10.2256H58.9121V24.5444C58.9121 24.9351 59.0342 25.2484 59.2783 25.4844C59.5225 25.7122 59.8276 25.8262 60.1938 25.8262H61.6099V29ZM78.1992 30.2695C78.1992 30.8148 78.13 31.3031 77.9917 31.7344C77.8534 32.1738 77.6702 32.5563 77.4424 32.8818C77.2145 33.2155 76.95 33.4963 76.6489 33.7241C76.3478 33.9601 76.0304 34.1514 75.6968 34.2979C75.3713 34.4443 75.0417 34.5501 74.708 34.6152C74.3743 34.6885 74.057 34.7251 73.7559 34.7251H68.0308V31.5513H73.7559C74.179 31.5513 74.4964 31.4414 74.708 31.2217C74.9196 31.002 75.0254 30.6846 75.0254 30.2695V15.8042H78.1992V30.2695ZM73.7559 29H68.0308C67.575 29 67.0868 28.9227 66.5659 28.7681C66.0532 28.6134 65.5731 28.3612 65.1255 28.0112C64.6779 27.6532 64.3076 27.1934 64.0146 26.6318C63.7217 26.0622 63.5752 25.3664 63.5752 24.5444V15.8042H66.749V24.5444C66.749 24.9595 66.8589 25.2769 67.0786 25.4966C67.2983 25.7163 67.6239 25.8262 68.0552 25.8262H73.7559V29ZM98.7314 27.4009C98.7314 27.6287 98.6908 27.8403 98.6094 28.0356C98.528 28.231 98.4141 28.4019 98.2676 28.5483C98.1211 28.6867 97.9502 28.7965 97.7549 28.8779C97.5596 28.9593 97.3521 29 97.1323 29H89.979C89.3035 29 88.62 28.9268 87.9282 28.7803C87.2365 28.6338 86.5651 28.41 85.9141 28.1089C85.2712 27.7996 84.6649 27.409 84.0952 26.937C83.5256 26.465 83.0251 25.9076 82.5938 25.2646C82.1706 24.6136 81.8369 23.873 81.5928 23.043C81.3486 22.2048 81.2266 21.2729 81.2266 20.2476V11.4951H84.4004V20.2476C84.4004 21.1427 84.5225 21.8996 84.7666 22.5181C85.0189 23.1366 85.3363 23.6533 85.7188 24.0684C86.1012 24.4834 86.5203 24.8089 86.9761 25.0449C87.4318 25.2809 87.8631 25.4559 88.27 25.5698C88.6851 25.6838 89.0472 25.757 89.3564 25.7896C89.6738 25.814 89.8813 25.8262 89.979 25.8262H95.5576V11.4951H98.7314V27.4009ZM116.7 29H113.526V21.6758C113.526 21.2607 113.453 20.8905 113.307 20.5649C113.168 20.2313 112.977 19.9465 112.733 19.7104C112.489 19.4744 112.2 19.2954 111.866 19.1733C111.541 19.0431 111.187 18.978 110.804 18.978H105.25V29H102.076V17.3789C102.076 17.1592 102.117 16.9557 102.198 16.7686C102.28 16.5732 102.394 16.4064 102.54 16.2681C102.687 16.1216 102.857 16.0076 103.053 15.9263C103.248 15.8449 103.456 15.8042 103.675 15.8042H110.829C111.227 15.8042 111.646 15.849 112.086 15.9385C112.534 16.028 112.973 16.1745 113.404 16.3779C113.844 16.5732 114.259 16.8255 114.649 17.1348C115.048 17.4359 115.398 17.8062 115.699 18.2456C116.008 18.6769 116.253 19.1774 116.432 19.7471C116.611 20.3167 116.7 20.9596 116.7 21.6758V29ZM122.706 13.0942H119.532V10.2256H122.706V13.0942ZM122.706 29H119.532V15.8042H122.706V29ZM155.206 26.832C155.206 27.1966 155.134 27.5352 154.991 27.8477C154.861 28.1602 154.679 28.4336 154.444 28.668C154.223 28.8893 153.956 29.0651 153.644 29.1953C153.331 29.3255 152.999 29.3906 152.647 29.3906C152.335 29.3906 152.016 29.332 151.69 29.2148C151.378 29.0977 151.098 28.9089 150.851 28.6484L132.296 9.27344V29H127.218V3.16016C127.218 2.63932 127.361 2.17057 127.647 1.75391C127.947 1.32422 128.325 1.00521 128.78 0.796875C129.262 0.601562 129.757 0.55599 130.265 0.660156C130.772 0.751302 131.209 0.985677 131.573 1.36328L150.128 20.7188V0.992188H155.206V26.832ZM183.37 21.8711C183.37 22.7435 183.259 23.5312 183.038 24.2344C182.817 24.9245 182.524 25.5365 182.159 26.0703C181.795 26.5911 181.371 27.0404 180.89 27.418C180.408 27.7826 179.9 28.082 179.366 28.3164C178.845 28.5508 178.312 28.7266 177.765 28.8438C177.231 28.9479 176.723 29 176.241 29H167.081C166.378 29 165.61 28.8763 164.776 28.6289C163.943 28.3815 163.168 27.9779 162.452 27.418C161.749 26.8451 161.157 26.1094 160.675 25.2109C160.206 24.2995 159.972 23.1862 159.972 21.8711V14.9961C159.972 13.694 160.206 12.5938 160.675 11.6953C161.157 10.7839 161.749 10.0482 162.452 9.48828C163.168 8.91536 163.943 8.50521 164.776 8.25781C165.61 8.01042 166.378 7.88672 167.081 7.88672H176.241C177.543 7.88672 178.65 8.12109 179.562 8.58984C180.473 9.05859 181.209 9.65104 181.769 10.3672C182.328 11.0703 182.732 11.8385 182.979 12.6719C183.24 13.5052 183.37 14.2799 183.37 14.9961V21.8711ZM178.292 15.0352C178.292 14.332 178.116 13.8112 177.765 13.4727C177.413 13.1341 176.905 12.9648 176.241 12.9648H167.12C166.443 12.9648 165.929 13.1406 165.577 13.4922C165.226 13.8307 165.05 14.332 165.05 14.9961V21.8711C165.05 22.5352 165.226 23.043 165.577 23.3945C165.929 23.7461 166.443 23.9219 167.12 23.9219H176.241C176.931 23.9219 177.446 23.7461 177.784 23.3945C178.123 23.043 178.292 22.5352 178.292 21.8711V15.0352ZM222.472 7.88672C221.664 9.69661 220.792 11.4805 219.854 13.2383C218.917 14.9831 217.934 16.6367 216.905 18.1992C215.89 19.7617 214.848 21.207 213.78 22.5352C212.713 23.8503 211.651 24.9896 210.597 25.9531C209.555 26.9036 208.533 27.6523 207.53 28.1992C206.541 28.7331 205.603 29 204.718 29C204.353 29 204.015 28.9349 203.702 28.8047C203.39 28.6745 203.116 28.4987 202.882 28.2773C202.647 28.043 202.465 27.7695 202.335 27.457C202.205 27.1445 202.14 26.806 202.14 26.4414V16.9688L192.062 28.2383C191.801 28.4987 191.515 28.694 191.202 28.8242C190.903 28.9414 190.59 29 190.265 29C189.913 29 189.581 28.9349 189.269 28.8047C188.969 28.6745 188.702 28.4987 188.468 28.2773C188.233 28.043 188.045 27.7695 187.901 27.457C187.771 27.1445 187.706 26.806 187.706 26.4414V7.88672H192.784V19.918L202.901 8.60938C203.266 8.24479 203.696 8.01693 204.19 7.92578C204.698 7.82161 205.193 7.8737 205.675 8.08203C206.157 8.27734 206.534 8.58984 206.808 9.01953C207.094 9.4362 207.237 9.89844 207.237 10.4062V22.4766C208.331 21.4219 209.321 20.3086 210.206 19.1367C211.091 17.9648 211.912 16.7604 212.667 15.5234C213.435 14.2734 214.151 13.0104 214.815 11.7344C215.493 10.4453 216.15 9.16276 216.788 7.88672H222.472Z" fill="white"/>
</svg>
