<svg width="270" height="34" viewBox="0 0 270 34" fill="none" xmlns="http://www.w3.org/2000/svg">
<path d="M18.0186 28H14.8447V23.7031H3.6875V28H0.513672V19.2476C0.513672 17.9699 0.733398 16.7939 1.17285 15.7197C1.6123 14.6455 2.22266 13.7218 3.00391 12.9487C3.78516 12.1756 4.70882 11.5734 5.7749 11.1421C6.84098 10.7108 8.00472 10.4951 9.26611 10.4951H16.4194C16.6392 10.4951 16.8467 10.5358 17.042 10.6172C17.2373 10.6986 17.4082 10.8125 17.5547 10.959C17.7012 11.1055 17.8151 11.2764 17.8965 11.4717C17.9779 11.667 18.0186 11.8745 18.0186 12.0942V28ZM3.6875 20.5293H14.8447V13.6689H9.26611C9.16846 13.6689 8.96094 13.6852 8.64355 13.7178C8.33431 13.7422 7.97217 13.8114 7.55713 13.9253C7.15023 14.0392 6.71891 14.2142 6.26318 14.4502C5.80745 14.6862 5.38835 15.0117 5.00586 15.4268C4.62337 15.8418 4.30599 16.3626 4.05371 16.9893C3.80957 17.6077 3.6875 18.3605 3.6875 19.2476V20.5293ZM35.8408 23.5444C35.8408 24.0897 35.7716 24.582 35.6333 25.0215C35.495 25.4528 35.3118 25.8353 35.084 26.1689C34.8561 26.4945 34.5916 26.7752 34.2905 27.0112C33.9894 27.2391 33.672 27.4263 33.3384 27.5728C33.0129 27.7192 32.6833 27.8291 32.3496 27.9023C32.016 27.9674 31.6986 28 31.3975 28H25.6724V24.8262H31.3975C31.8206 24.8262 32.138 24.7163 32.3496 24.4966C32.5612 24.2769 32.667 23.9595 32.667 23.5444V19.272C32.667 18.8325 32.5571 18.507 32.3374 18.2954C32.1258 18.0838 31.8125 17.978 31.3975 17.978H25.6968C25.2655 17.978 24.9399 18.0879 24.7202 18.3076C24.5005 18.5192 24.3906 18.8325 24.3906 19.2476V32.126H21.2168V19.2476C21.2168 18.7023 21.286 18.214 21.4243 17.7827C21.5627 17.3514 21.7458 16.973 21.9736 16.6475C22.2096 16.3138 22.4782 16.033 22.7793 15.8052C23.0804 15.5692 23.3937 15.3779 23.7192 15.2314C24.0529 15.085 24.3866 14.9792 24.7202 14.9141C25.062 14.8408 25.3794 14.8042 25.6724 14.8042H31.3975C31.9427 14.8042 32.431 14.8734 32.8623 15.0117C33.2936 15.1501 33.672 15.3332 33.9976 15.561C34.3312 15.7889 34.612 16.0534 34.8398 16.3545C35.0758 16.6556 35.2671 16.973 35.4136 17.3066C35.5601 17.6322 35.6659 17.9618 35.731 18.2954C35.8042 18.6291 35.8408 18.9465 35.8408 19.2476V23.5444ZM53.1016 23.5444C53.1016 24.0897 53.0324 24.582 52.894 25.0215C52.7557 25.4528 52.5726 25.8353 52.3447 26.1689C52.1169 26.4945 51.8524 26.7752 51.5513 27.0112C51.2502 27.2391 50.9328 27.4263 50.5991 27.5728C50.2736 27.7192 49.944 27.8291 49.6104 27.9023C49.2767 27.9674 48.9593 28 48.6582 28H42.9331V24.8262H48.6582C49.0814 24.8262 49.3988 24.7163 49.6104 24.4966C49.8219 24.2769 49.9277 23.9595 49.9277 23.5444V19.272C49.9277 18.8325 49.8179 18.507 49.5981 18.2954C49.3866 18.0838 49.0732 17.978 48.6582 17.978H42.9575C42.5262 17.978 42.2007 18.0879 41.981 18.3076C41.7612 18.5192 41.6514 18.8325 41.6514 19.2476V32.126H38.4775V19.2476C38.4775 18.7023 38.5467 18.214 38.6851 17.7827C38.8234 17.3514 39.0065 16.973 39.2344 16.6475C39.4704 16.3138 39.7389 16.033 40.04 15.8052C40.3411 15.5692 40.6545 15.3779 40.98 15.2314C41.3136 15.085 41.6473 14.9792 41.981 14.9141C42.3228 14.8408 42.6401 14.8042 42.9331 14.8042H48.6582C49.2035 14.8042 49.6917 14.8734 50.123 15.0117C50.5544 15.1501 50.9328 15.3332 51.2583 15.561C51.592 15.7889 51.8727 16.0534 52.1006 16.3545C52.3366 16.6556 52.5278 16.973 52.6743 17.3066C52.8208 17.6322 52.9266 17.9618 52.9917 18.2954C53.0649 18.6291 53.1016 18.9465 53.1016 19.2476V23.5444ZM61.6099 28H60.1938C59.7381 28 59.2498 27.9227 58.729 27.7681C58.2163 27.6134 57.7362 27.3612 57.2886 27.0112C56.841 26.6532 56.4707 26.1934 56.1777 25.6318C55.8848 25.0622 55.7383 24.3664 55.7383 23.5444V9.22559H58.9121V23.5444C58.9121 23.9351 59.0342 24.2484 59.2783 24.4844C59.5225 24.7122 59.8276 24.8262 60.1938 24.8262H61.6099V28ZM78.1992 29.2695C78.1992 29.8148 78.13 30.3031 77.9917 30.7344C77.8534 31.1738 77.6702 31.5563 77.4424 31.8818C77.2145 32.2155 76.95 32.4963 76.6489 32.7241C76.3478 32.9601 76.0304 33.1514 75.6968 33.2979C75.3713 33.4443 75.0417 33.5501 74.708 33.6152C74.3743 33.6885 74.057 33.7251 73.7559 33.7251H68.0308V30.5513H73.7559C74.179 30.5513 74.4964 30.4414 74.708 30.2217C74.9196 30.002 75.0254 29.6846 75.0254 29.2695V14.8042H78.1992V29.2695ZM73.7559 28H68.0308C67.575 28 67.0868 27.9227 66.5659 27.7681C66.0532 27.6134 65.5731 27.3612 65.1255 27.0112C64.6779 26.6532 64.3076 26.1934 64.0146 25.6318C63.7217 25.0622 63.5752 24.3664 63.5752 23.5444V14.8042H66.749V23.5444C66.749 23.9595 66.8589 24.2769 67.0786 24.4966C67.2983 24.7163 67.6239 24.8262 68.0552 24.8262H73.7559V28ZM98.7314 26.4009C98.7314 26.6287 98.6908 26.8403 98.6094 27.0356C98.528 27.231 98.4141 27.4019 98.2676 27.5483C98.1211 27.6867 97.9502 27.7965 97.7549 27.8779C97.5596 27.9593 97.3521 28 97.1323 28H89.979C89.3035 28 88.62 27.9268 87.9282 27.7803C87.2365 27.6338 86.5651 27.41 85.9141 27.1089C85.2712 26.7996 84.6649 26.409 84.0952 25.937C83.5256 25.465 83.0251 24.9076 82.5938 24.2646C82.1706 23.6136 81.8369 22.873 81.5928 22.043C81.3486 21.2048 81.2266 20.2729 81.2266 19.2476V10.4951H84.4004V19.2476C84.4004 20.1427 84.5225 20.8996 84.7666 21.5181C85.0189 22.1366 85.3363 22.6533 85.7188 23.0684C86.1012 23.4834 86.5203 23.8089 86.9761 24.0449C87.4318 24.2809 87.8631 24.4559 88.27 24.5698C88.6851 24.6838 89.0472 24.757 89.3564 24.7896C89.6738 24.814 89.8813 24.8262 89.979 24.8262H95.5576V10.4951H98.7314V26.4009ZM116.7 28H113.526V20.6758C113.526 20.2607 113.453 19.8905 113.307 19.5649C113.168 19.2313 112.977 18.9465 112.733 18.7104C112.489 18.4744 112.2 18.2954 111.866 18.1733C111.541 18.0431 111.187 17.978 110.804 17.978H105.25V28H102.076V16.3789C102.076 16.1592 102.117 15.9557 102.198 15.7686C102.28 15.5732 102.394 15.4064 102.54 15.2681C102.687 15.1216 102.857 15.0076 103.053 14.9263C103.248 14.8449 103.456 14.8042 103.675 14.8042H110.829C111.227 14.8042 111.646 14.849 112.086 14.9385C112.534 15.028 112.973 15.1745 113.404 15.3779C113.844 15.5732 114.259 15.8255 114.649 16.1348C115.048 16.4359 115.398 16.8062 115.699 17.2456C116.008 17.6769 116.253 18.1774 116.432 18.7471C116.611 19.3167 116.7 19.9596 116.7 20.6758V28ZM122.706 12.0942H119.532V9.22559H122.706V12.0942ZM122.706 28H119.532V14.8042H122.706V28ZM132.335 11.4375H150.167V-0.0078125H155.245V28H150.167V16.5547H132.335V28H127.257V-0.0078125H132.335V11.4375ZM183.448 20.8711C183.448 21.7435 183.338 22.5312 183.116 23.2344C182.895 23.9245 182.602 24.5365 182.237 25.0703C181.873 25.5911 181.45 26.0404 180.968 26.418C180.486 26.7826 179.978 27.082 179.444 27.3164C178.924 27.5508 178.39 27.7266 177.843 27.8438C177.309 27.9479 176.801 28 176.319 28H167.159C166.456 28 165.688 27.8763 164.854 27.6289C164.021 27.3815 163.246 26.9779 162.53 26.418C161.827 25.8451 161.235 25.1094 160.753 24.2109C160.284 23.2995 160.05 22.1862 160.05 20.8711V13.9961C160.05 12.694 160.284 11.5938 160.753 10.6953C161.235 9.78385 161.827 9.04818 162.53 8.48828C163.246 7.91536 164.021 7.50521 164.854 7.25781C165.688 7.01042 166.456 6.88672 167.159 6.88672H176.319C177.621 6.88672 178.728 7.12109 179.64 7.58984C180.551 8.05859 181.287 8.65104 181.847 9.36719C182.407 10.0703 182.81 10.8385 183.058 11.6719C183.318 12.5052 183.448 13.2799 183.448 13.9961V20.8711ZM178.37 14.0352C178.37 13.332 178.194 12.8112 177.843 12.4727C177.491 12.1341 176.983 11.9648 176.319 11.9648H167.198C166.521 11.9648 166.007 12.1406 165.655 12.4922C165.304 12.8307 165.128 13.332 165.128 13.9961V20.8711C165.128 21.5352 165.304 22.043 165.655 22.3945C166.007 22.7461 166.521 22.9219 167.198 22.9219H176.319C177.009 22.9219 177.524 22.7461 177.862 22.3945C178.201 22.043 178.37 21.5352 178.37 20.8711V14.0352ZM206.632 28H201.554V13.9961C201.554 13.332 201.378 12.8307 201.026 12.4922C200.675 12.1406 200.154 11.9648 199.464 11.9648H192.862V28H187.784V9.40625C187.784 9.05469 187.849 8.72917 187.979 8.42969C188.11 8.11719 188.292 7.85026 188.526 7.62891C188.761 7.39453 189.034 7.21224 189.347 7.08203C189.659 6.95182 189.991 6.88672 190.343 6.88672H199.503C200.206 6.88672 200.961 7.01042 201.769 7.25781C202.576 7.50521 203.344 7.90234 204.073 8.44922V6.88672H210.948C211.43 6.88672 211.938 6.94531 212.472 7.0625C213.006 7.16667 213.533 7.33594 214.054 7.57031C214.588 7.80469 215.095 8.11068 215.577 8.48828C216.059 8.85286 216.482 9.30208 216.847 9.83594C217.211 10.3568 217.504 10.9622 217.726 11.6523C217.947 12.3424 218.058 13.1237 218.058 13.9961V28H212.979V13.9961C212.979 13.332 212.81 12.8307 212.472 12.4922C212.146 12.1406 211.638 11.9648 210.948 11.9648H206.378C206.547 12.5898 206.632 13.2669 206.632 13.9961V28ZM245.46 13.8789C245.46 14.582 245.336 15.3438 245.089 16.1641C244.841 16.9714 244.438 17.7266 243.878 18.4297C243.331 19.1198 242.608 19.6992 241.71 20.168C240.825 20.6367 239.744 20.8711 238.468 20.8711H229.308V16.0469H238.468C239.158 16.0469 239.692 15.8385 240.069 15.4219C240.447 14.9922 240.636 14.4648 240.636 13.8398C240.636 13.1758 240.421 12.6549 239.991 12.2773C239.575 11.8997 239.067 11.7109 238.468 11.7109H229.308C228.618 11.7109 228.084 11.9258 227.706 12.3555C227.328 12.7721 227.14 13.293 227.14 13.918V21.0078C227.14 21.6849 227.348 22.2122 227.765 22.5898C228.194 22.9674 228.722 23.1562 229.347 23.1562H238.468V28H229.308C228.604 28 227.843 27.8763 227.022 27.6289C226.215 27.3815 225.46 26.9844 224.757 26.4375C224.067 25.8776 223.487 25.1549 223.019 24.2695C222.55 23.3711 222.315 22.2839 222.315 21.0078V13.8789C222.315 13.1758 222.439 12.4206 222.687 11.6133C222.934 10.793 223.331 10.0378 223.878 9.34766C224.438 8.64453 225.16 8.05859 226.046 7.58984C226.944 7.12109 228.032 6.88672 229.308 6.88672H238.468C239.171 6.88672 239.926 7.01042 240.733 7.25781C241.554 7.50521 242.309 7.90885 242.999 8.46875C243.702 9.01562 244.288 9.73828 244.757 10.6367C245.226 11.5221 245.46 12.6029 245.46 13.8789ZM269.288 20.8711C269.288 21.7435 269.177 22.5312 268.956 23.2344C268.735 23.9245 268.442 24.5365 268.077 25.0703C267.713 25.5911 267.289 26.0404 266.808 26.418C266.326 26.7826 265.818 27.082 265.284 27.3164C264.763 27.5508 264.229 27.7266 263.683 27.8438C263.149 27.9479 262.641 28 262.159 28H248.409V22.9219H262.12C262.81 22.9219 263.331 22.7461 263.683 22.3945C264.034 22.043 264.21 21.5352 264.21 20.8711C264.145 19.5169 263.461 18.8398 262.159 18.8398H254.288C253.168 18.8398 252.218 18.6445 251.437 18.2539C250.655 17.8633 250.017 17.375 249.522 16.7891C249.041 16.2031 248.689 15.5716 248.468 14.8945C248.259 14.2174 248.155 13.5859 248.155 13C248.155 11.8672 248.357 10.9167 248.761 10.1484C249.164 9.36719 249.672 8.73568 250.284 8.25391C250.896 7.77214 251.56 7.42708 252.276 7.21875C252.993 6.9974 253.663 6.88672 254.288 6.88672H266.769V11.9648H254.327C254.067 11.9648 253.858 11.9974 253.702 12.0625C253.559 12.1146 253.448 12.1927 253.37 12.2969C253.305 12.388 253.266 12.4922 253.253 12.6094C253.24 12.7135 253.233 12.8177 253.233 12.9219C253.246 13.1302 253.285 13.293 253.351 13.4102C253.416 13.5273 253.494 13.612 253.585 13.6641C253.689 13.7161 253.8 13.7487 253.917 13.7617C254.047 13.7617 254.171 13.7617 254.288 13.7617H262.159C263.461 13.7617 264.568 13.9961 265.479 14.4648C266.391 14.9336 267.127 15.526 267.687 16.2422C268.246 16.9453 268.65 17.7135 268.897 18.5469C269.158 19.3802 269.288 20.1549 269.288 20.8711Z" fill="white"/>
</svg>
