<svg width="12" height="15" viewBox="0 0 12 15" fill="none" xmlns="http://www.w3.org/2000/svg">
<path d="M8.92791 5.76166H3.07211C1.92772 5.76166 1 6.69023 1 7.83568V12.5852C1 13.7307 1.92772 14.6592 3.07211 14.6592H8.92791C10.0723 14.6592 11 13.7307 11 12.5852V7.83568C11 6.69023 10.0723 5.76166 8.92791 5.76166Z" stroke="white" stroke-width="0.7" stroke-linecap="round" stroke-linejoin="round"/>
<path d="M8.50001 5.62283V3.47786C8.50001 2.71943 8.23662 1.99206 7.76778 1.45577C7.29894 0.91948 6.66305 0.618195 6.00001 0.618195C5.33696 0.618195 4.70108 0.91948 4.23224 1.45577C3.76339 1.99206 3.5 2.71943 3.5 3.47786V5.62283" stroke="white" stroke-width="0.7" stroke-linecap="round" stroke-linejoin="round"/>
<path d="M6.00011 11.2474C6.57231 11.2474 7.03617 10.7831 7.03617 10.2104C7.03617 9.63769 6.57231 9.1734 6.00011 9.1734C5.42791 9.1734 4.96405 9.63769 4.96405 10.2104C4.96405 10.7831 5.42791 11.2474 6.00011 11.2474Z" fill="white"/>
</svg>
